<svg xmlns="http://www.w3.org/2000/svg" xmlns:xlink="http://www.w3.org/1999/xlink" width="39.854" height="39.936" viewBox="0 0 39.854 39.936">
  <defs>
    <filter id="loupe" x="0" y="0" width="39.854" height="39.936" filterUnits="userSpaceOnUse">
      <feOffset dy="3" input="SourceAlpha"/>
      <feGaussianBlur stdDeviation="3" result="blur"/>
      <feFlood flood-opacity="0.157"/>
      <feComposite operator="in" in2="blur"/>
      <feComposite in="SourceGraphic"/>
    </filter>
  </defs>
  <g transform="matrix(1, 0, 0, 1, 0, 0)" filter="url(#loupe)">
    <path id="loupe-2" data-name="loupe" d="M22.076,17.286l-3.61-3.61A9.96,9.96,0,0,0,19.559,9.3a9.3,9.3,0,1,0-9.3,9.3,9.96,9.96,0,0,0,4.376-1.094l3.61,3.61a2.644,2.644,0,0,0,3.829,0A2.851,2.851,0,0,0,22.076,17.286ZM10.26,16.411A7.112,7.112,0,1,1,17.371,9.3,7.1,7.1,0,0,1,10.26,16.411Z" transform="translate(8.04 6)" fill="#10152a"/>
  </g>
</svg>
